<?xml version="1.0" encoding="UTF-8" standalone="no"?>
<svg
   xmlns:dc="http://purl.org/dc/elements/1.1/"
   xmlns:cc="http://creativecommons.org/ns#"
   xmlns:rdf="http://www.w3.org/1999/02/22-rdf-syntax-ns#"
   xmlns:svg="http://www.w3.org/2000/svg"
   xmlns="http://www.w3.org/2000/svg"
   xmlns:xlink="http://www.w3.org/1999/xlink"
   xmlns:sodipodi="http://sodipodi.sourceforge.net/DTD/sodipodi-0.dtd"
   xmlns:inkscape="http://www.inkscape.org/namespaces/inkscape"
   width="300"
   height="300"
   viewBox="0 0 79.374999 79.375002"
   version="1.1"
   id="svg3124"
   inkscape:version="1.0.1 (3bc2e813f5, 2020-09-07)"
   sodipodi:docname="beeondgo_logo.svg">
  <defs
     id="defs3118">
    <linearGradient
       inkscape:collect="always"
       xlink:href="#linearGradient4746"
       id="linearGradient7109"
       gradientUnits="userSpaceOnUse"
       x1="133.30072"
       y1="260.16226"
       x2="181.51212"
       y2="260.16226" />
    <linearGradient
       inkscape:collect="always"
       id="linearGradient4746">
      <stop
         style="stop-color:#271987;stop-opacity:1"
         offset="0"
         id="stop4742" />
      <stop
         style="stop-color:#2000ff;stop-opacity:0"
         offset="1"
         id="stop4744" />
    </linearGradient>
    <inkscape:path-effect
       effect="simplify"
       id="path-effect5248"
       is_visible="true"
       lpeversion="1"
       steps="1"
       threshold="0.00146067"
       smooth_angles="360"
       helper_size="0"
       simplify_individual_paths="false"
       simplify_just_coalesce="false" />
    <linearGradient
       inkscape:collect="always"
       xlink:href="#linearGradient4746"
       id="linearGradient3719"
       gradientUnits="userSpaceOnUse"
       x1="133.30072"
       y1="260.16226"
       x2="181.51212"
       y2="260.16226" />
  </defs>
  <sodipodi:namedview
     id="base"
     pagecolor="#ffffff"
     bordercolor="#666666"
     borderopacity="1.0"
     inkscape:pageopacity="0.0"
     inkscape:pageshadow="2"
     inkscape:zoom="0.98994949"
     inkscape:cx="210.46047"
     inkscape:cy="310.54458"
     inkscape:document-units="mm"
     inkscape:current-layer="layer1"
     inkscape:document-rotation="0"
     showgrid="false"
     units="px"
     inkscape:window-width="1431"
     inkscape:window-height="1020"
     inkscape:window-x="160"
     inkscape:window-y="0"
     inkscape:window-maximized="0" />
  <metadata
     id="metadata3121">
    <rdf:RDF>
      <cc:Work
         rdf:about="">
        <dc:format>image/svg+xml</dc:format>
        <dc:type
           rdf:resource="http://purl.org/dc/dcmitype/StillImage" />
        <dc:title></dc:title>
      </cc:Work>
    </rdf:RDF>
  </metadata>
  <g
     inkscape:label="Layer 1"
     inkscape:groupmode="layer"
     id="layer1">
    <g
       id="g5445"
       style="stroke:url(#linearGradient7109);stroke-width:0.563558;stroke-miterlimit:4;stroke-dasharray:none;stroke-opacity:1"
       transform="matrix(0.19992048,2.4797578,-2.626114,0.18877867,1816.6476,139.18807)">
      <g
         id="g6749"
         style="stroke:url(#linearGradient3719);stroke-width:0.563558;stroke-miterlimit:4;stroke-dasharray:none"
         transform="translate(156.41928,669.06898)">
        <path
           style="fill:none;fill-opacity:1;stroke:#000000;stroke-width:0.563558;stroke-linecap:round;stroke-miterlimit:4;stroke-dasharray:none;stroke-dashoffset:0;stroke-opacity:1"
           d="m -248.82048,-3.0095308 c 0.54139,0.187451 0.98444,0.6687822 1.04897,1.2503589 0.0883,0.79613409 -0.29819,1.64657272 -0.97189,2.07104979 -0.68152,0.42940193 -1.59118,0.42184141 -2.28356,-0.002764 -0.5565,-0.34127777 -0.98721,-0.91920774 -1.03943,-1.58892879 -0.0698,-0.8952502 0.47464,-1.7169353 1.16383,-2.2408524 0.71859,-0.5462676 1.6807,-0.9189545 2.57836,-0.6495474 0.64219,0.1927343 1.16096,0.6919747 1.48642,1.2592394 0.46222,0.8056394 0.40142,1.7821401 0.25028,2.66194638 -0.13748,0.80028136 -0.33472,1.59136092 -0.62956,2.35018332 -0.85309,2.1956086 -1.9774,4.3116279 -3.50397,6.112989 -1.07469,1.2681361 -2.38739,2.4148076 -3.99047,2.9488766 -0.79198,0.26385 -1.64033,0.289457 -2.46397,0.18445 -0.84692,-0.107975 -1.75592,-0.286263 -2.4027,-0.886888 -0.57239,-0.5315448 -0.65275,-1.357846 -0.68585,-2.1064366 -0.0198,-0.4480482 0.17083,-0.8773097 0.47199,-1.2031461 0.75372,-0.8154687 1.76025,-1.3402846 2.75232,-1.803543 2.6044,-1.2161538 5.33919,-2.1178206 8.03985,-3.0903667 3.26164,-1.1745628 6.57505,-2.2829144 9.62053,-3.9558989 1.46854,-0.806718 2.94579,-1.7133693 3.99821,-3.04523 0.52542,-0.6649318 0.84333,-1.4888967 0.86907,-2.3429378 0.0296,-0.9833668 -0.15641,-2.037893 -0.81036,-2.8097721 -0.50931,-0.6011598 -1.32576,-0.8210368 -2.09614,-0.8043968 -0.87239,0.01884 -1.66589,0.489632 -2.25307,1.1103568 -0.93771,0.9912738 -1.60385,2.2004998 -2.21592,3.4084857 -1.11507,2.2007067 -2.12742,4.4528844 -3.0724,6.73083115 -0.59914,1.44427075 -1.23799,2.89220125 -1.54711,4.43024115 -0.16275,0.8097738 -0.24701,1.6953585 0.112,2.4748297 0.19012,0.4127776 0.60971,0.7005684 1.06711,0.714152 0.77611,0.023048 1.50377,-0.3446723 2.13101,-0.7638507 1.14571,-0.7656624 2.17602,-1.7461517 2.87618,-2.9350296 0.3424,-0.5814002 0.65865,-1.2405888 0.59484,-1.9358056 -0.0427,-0.4654547 -0.42594,-0.7929211 -0.83725,-0.9729273 -0.51931,-0.2272731 -1.13595,-0.1038458 -1.57401,0.2432693 -0.72964,0.5781581 -1.15512,1.4527027 -1.42795,2.3212702 -0.38879,1.237719 -0.56871,2.5768086 -0.30841,3.8567946 0.14273,0.7018461 0.46049,1.4607054 1.13382,1.7967515 0.82062,0.4095561 1.80524,0.2617361 2.60446,-0.1234291 0.89456,-0.4311144 1.70792,-1.1002777 2.18097,-1.98194 0.22371,-0.4169504 0.3938,-0.9932044 0.0722,-1.3978418 -0.28968,-0.3644265 -0.83795,-0.5591996 -1.27185,-0.3306618 -0.64443,0.3394259 -1.02863,1.0185089 -1.24159,1.6917725 -0.34093,1.0778178 -0.14524,2.3134504 0.55256,3.2129613 0.93635,1.207023 2.47144,1.756735 3.92046,2.038452"
           id="path929-0-7-40-9-5-8-1-2"
           inkscape:path-effect="#path-effect5248"
           inkscape:original-d="m -248.82048,-3.0095308 c 1.78155,0.6847696 1.03659,2.91297236 -0.13753,3.43923526 -1.49766,0.67127474 -2.58631,-0.41683237 -2.87204,-0.9231855 -0.4728,-0.83786526 -0.29833,-2.07416906 0.92749,-3.02718596 0.69839,-0.5429758 2.25649,-1.289355 3.47644,-0.1105634 0.85607,0.8271779 1.35959,1.7481999 0.48547,4.9631985 -1.32984,3.9593251 -4.99647,10.3994889 -9.68427,10.0667569 -2.72564,-0.193468 -3.79756,-1.075922 -3.62455,-3.298998 0.33622,-4.3202468 25.01907,-7.72781019 25.71295,-14.820571 0.16718,-1.7090319 -0.37231,-3.85563 -2.52044,-3.977484 -2.62517,-0.148924 -4.05232,2.4127659 -7.44374,10.17942664 -1.87297,4.28929506 -2.69918,6.82949776 -1.77598,8.16881396 1.6897,2.4513004 8.614,-4.4661654 5.9684,-5.9667442 -3.13939,-1.7806513 -5.1325,6.8722262 -2.36749,8.1257814 2.70132,1.2246732 6.68149,-3.175728 4.16368,-3.9364049 -1.7507,-0.5289188 -4.57423,5.6483911 2.58955,7.0149911"
           sodipodi:nodetypes="csssscsssssssssc" />
        <path
           style="fill:none;stroke:#000000;stroke-width:0.563558;stroke-linecap:round;stroke-linejoin:miter;stroke-miterlimit:4;stroke-dasharray:none;stroke-opacity:1"
           d="m -253.27832,-2.9494351 c -1.42944,-1.3086793 -1.42944,-1.3086793 -1.42944,-1.3086793"
           id="path5417" />
        <path
           style="fill:none;stroke:#000000;stroke-width:0.563558;stroke-linecap:round;stroke-linejoin:miter;stroke-miterlimit:4;stroke-dasharray:none;stroke-opacity:1"
           d="m -253.64286,-1.2682987 -1.15716,-0.3756068"
           id="path5419" />
      </g>
    </g>
    <circle
       style="fill:#000000;fill-opacity:1;stroke:none;stroke-width:2.54452;stroke-linecap:round;stroke-miterlimit:4;stroke-dasharray:none"
       id="path5709-5"
       cx="46.865459"
       cy="32.875801"
       r="1.0900574" />
    <circle
       style="fill:#000000;fill-opacity:1;stroke:none;stroke-width:2.62073;stroke-linecap:round;stroke-miterlimit:4;stroke-dasharray:none"
       id="path5709-5-4"
       cx="43.812916"
       cy="34.100063"
       r="1.122707" />
  </g>
</svg>
