<svg width="131" height="33" viewBox="0 0 131 33" fill="none" xmlns="http://www.w3.org/2000/svg">
<path d="M39.2911 27C38.0271 27 36.8991 26.728 35.9071 26.184C34.9151 25.64 34.1311 24.912 33.5551 24C32.9791 23.072 32.6911 22.032 32.6911 20.88C32.6911 19.728 32.9791 18.696 33.5551 17.784C34.1311 16.856 34.9151 16.12 35.9071 15.576C36.8991 15.032 38.0271 14.76 39.2911 14.76H40.6351V15.768H39.1471C38.1871 15.768 37.3071 16 36.5071 16.464C35.7071 16.912 35.0591 17.52 34.5631 18.288C34.0831 19.056 33.8431 19.92 33.8431 20.88C33.8431 21.84 34.0831 22.704 34.5631 23.472C35.0591 24.24 35.7071 24.856 36.5071 25.32C37.3071 25.768 38.1871 25.992 39.1471 25.992H40.6351V27H39.2911ZM48.8652 27.312C47.9212 27.312 47.0252 27.104 46.1772 26.688C45.3452 26.256 44.6732 25.64 44.1612 24.84C43.6492 24.04 43.3932 23.064 43.3932 21.912V14.76H44.5452V21.84C44.5452 22.8 44.7532 23.616 45.1692 24.288C45.5852 24.96 46.1212 25.464 46.7772 25.8C47.4332 26.136 48.1212 26.304 48.8412 26.304C49.5932 26.304 50.2972 26.136 50.9532 25.8C51.6252 25.448 52.1692 24.944 52.5852 24.288C53.0012 23.616 53.2092 22.8 53.2092 21.84V14.76H54.3612V21.912C54.3612 23.064 54.1052 24.04 53.5932 24.84C53.0812 25.64 52.4092 26.256 51.5772 26.688C50.7452 27.104 49.8412 27.312 48.8652 27.312ZM63.7726 27.312C62.9726 27.312 62.2046 27.176 61.4686 26.904C60.7326 26.616 60.0766 26.2 59.5006 25.656C58.9246 25.112 58.4686 24.44 58.1326 23.64C57.7966 22.824 57.6286 21.888 57.6286 20.832C57.6286 19.488 57.9086 18.344 58.4686 17.4C59.0286 16.456 59.7646 15.736 60.6766 15.24C61.5886 14.728 62.5806 14.472 63.6526 14.472C64.3726 14.472 65.0606 14.608 65.7166 14.88C66.3886 15.152 66.9806 15.528 67.4926 16.008C68.0046 16.472 68.3966 17.008 68.6686 17.616H68.7406V9.48H69.8686V20.976C69.8686 22.352 69.5806 23.512 69.0046 24.456C68.4286 25.4 67.6766 26.112 66.7486 26.592C65.8366 27.072 64.8446 27.312 63.7726 27.312ZM63.7966 26.304C64.6446 26.304 65.4446 26.104 66.1966 25.704C66.9486 25.288 67.5566 24.68 68.0206 23.88C68.4846 23.08 68.7166 22.096 68.7166 20.928C68.7166 19.744 68.4766 18.752 67.9966 17.952C67.5326 17.136 66.9246 16.52 66.1726 16.104C65.4206 15.688 64.6126 15.48 63.7486 15.48C62.8846 15.48 62.0766 15.696 61.3246 16.128C60.5726 16.56 59.9566 17.184 59.4766 18C59.0126 18.8 58.7806 19.76 58.7806 20.88C58.7806 22.048 59.0206 23.04 59.5006 23.856C59.9806 24.656 60.5966 25.264 61.3486 25.68C62.1166 26.096 62.9326 26.304 63.7966 26.304ZM79.0733 27.312C77.8253 27.312 76.7533 27.032 75.8573 26.472C74.9613 25.896 74.2733 25.12 73.7933 24.144C73.3293 23.168 73.0973 22.072 73.0973 20.856C73.0973 19.656 73.3453 18.576 73.8413 17.616C74.3533 16.64 75.0813 15.872 76.0253 15.312C76.9693 14.752 78.0973 14.472 79.4093 14.472C80.6413 14.472 81.7133 14.752 82.6253 15.312C83.5373 15.856 84.2413 16.6 84.7373 17.544C85.2493 18.472 85.5053 19.528 85.5053 20.712V27H84.3773V24.048H84.3053C84.0813 24.544 83.7293 25.048 83.2493 25.56C82.7853 26.056 82.2013 26.472 81.4973 26.808C80.8093 27.144 80.0013 27.312 79.0733 27.312ZM79.2653 26.328C80.2413 26.328 81.1133 26.096 81.8813 25.632C82.6493 25.152 83.2493 24.496 83.6813 23.664C84.1293 22.816 84.3533 21.864 84.3533 20.808C84.3533 19.784 84.1453 18.872 83.7293 18.072C83.3293 17.256 82.7533 16.616 82.0013 16.152C81.2493 15.688 80.3693 15.456 79.3613 15.456C78.3053 15.456 77.3933 15.696 76.6253 16.176C75.8733 16.656 75.2893 17.312 74.8733 18.144C74.4733 18.976 74.2733 19.92 74.2733 20.976C74.2733 21.952 74.4653 22.848 74.8493 23.664C75.2333 24.48 75.8013 25.128 76.5533 25.608C77.3053 26.088 78.2093 26.328 79.2653 26.328ZM95.473 27.312C94.417 27.312 93.425 27.072 92.497 26.592C91.569 26.112 90.817 25.4 90.241 24.456C89.665 23.512 89.377 22.352 89.377 20.976V9.48H90.505V17.616H90.577C90.865 17.008 91.257 16.472 91.753 16.008C92.265 15.528 92.849 15.152 93.505 14.88C94.177 14.608 94.873 14.472 95.593 14.472C96.665 14.472 97.657 14.728 98.569 15.24C99.481 15.736 100.217 16.456 100.777 17.4C101.337 18.344 101.617 19.488 101.617 20.832C101.617 21.888 101.449 22.824 101.113 23.64C100.777 24.44 100.321 25.112 99.745 25.656C99.169 26.2 98.513 26.616 97.777 26.904C97.041 27.176 96.273 27.312 95.473 27.312ZM95.449 26.304C96.313 26.304 97.121 26.096 97.873 25.68C98.641 25.264 99.265 24.656 99.745 23.856C100.225 23.04 100.465 22.048 100.465 20.88C100.465 19.76 100.225 18.8 99.745 18C99.281 17.184 98.673 16.56 97.921 16.128C97.169 15.696 96.361 15.48 95.497 15.48C94.649 15.48 93.841 15.688 93.073 16.104C92.321 16.52 91.705 17.136 91.225 17.952C90.761 18.752 90.529 19.744 90.529 20.928C90.529 22.096 90.761 23.08 91.225 23.88C91.689 24.68 92.297 25.288 93.049 25.704C93.801 26.104 94.601 26.304 95.449 26.304ZM111.11 27C109.83 27 108.67 26.768 107.63 26.304C106.59 25.824 105.766 25.128 105.158 24.216C104.55 23.304 104.246 22.192 104.246 20.88C104.246 19.744 104.478 18.688 104.942 17.712C105.406 16.736 106.062 15.952 106.91 15.36C107.774 14.768 108.79 14.472 109.958 14.472C111.11 14.472 112.094 14.728 112.91 15.24C113.742 15.752 114.374 16.448 114.806 17.328C115.254 18.192 115.478 19.168 115.478 20.256C115.478 20.432 115.47 20.608 115.454 20.784C115.454 20.96 115.438 21.136 115.406 21.312H105.446C105.478 22.32 105.75 23.176 106.262 23.88C106.774 24.584 107.446 25.112 108.278 25.464C109.11 25.816 110.006 25.992 110.966 25.992H113.966V27H111.11ZM105.446 20.424H114.302C114.318 20.104 114.294 19.728 114.23 19.296C114.182 18.864 114.07 18.432 113.894 18C113.718 17.552 113.462 17.136 113.126 16.752C112.806 16.368 112.382 16.056 111.854 15.816C111.326 15.576 110.678 15.456 109.91 15.456C109.222 15.456 108.598 15.6 108.038 15.888C107.494 16.176 107.03 16.568 106.646 17.064C106.262 17.544 105.966 18.08 105.758 18.672C105.55 19.248 105.446 19.832 105.446 20.424ZM124.961 27C123.681 27 122.521 26.768 121.481 26.304C120.441 25.824 119.617 25.128 119.009 24.216C118.401 23.304 118.097 22.192 118.097 20.88C118.097 19.744 118.329 18.688 118.793 17.712C119.257 16.736 119.913 15.952 120.761 15.36C121.625 14.768 122.641 14.472 123.809 14.472C124.961 14.472 125.945 14.728 126.761 15.24C127.593 15.752 128.225 16.448 128.657 17.328C129.105 18.192 129.329 19.168 129.329 20.256C129.329 20.432 129.321 20.608 129.305 20.784C129.305 20.96 129.289 21.136 129.257 21.312H119.297C119.329 22.32 119.601 23.176 120.113 23.88C120.625 24.584 121.297 25.112 122.129 25.464C122.961 25.816 123.857 25.992 124.817 25.992H127.817V27H124.961ZM119.297 20.424H128.153C128.169 20.104 128.145 19.728 128.081 19.296C128.033 18.864 127.921 18.432 127.745 18C127.569 17.552 127.313 17.136 126.977 16.752C126.657 16.368 126.233 16.056 125.705 15.816C125.177 15.576 124.529 15.456 123.761 15.456C123.073 15.456 122.449 15.6 121.889 15.888C121.345 16.176 120.881 16.568 120.497 17.064C120.113 17.544 119.817 18.08 119.609 18.672C119.401 19.248 119.297 19.832 119.297 20.424Z" fill="black"/>
<path d="M18.1725 8.44848L19.1092 5.63843" stroke="black" stroke-linecap="round"/>
<path d="M20.0459 8.76057L22.2315 5.7944" stroke="black" stroke-linecap="round"/>
<path d="M15.418 20.0654C15.418 20.0654 20.9235 20.285 23.8741 23.2357C26.8247 26.1863 26.2346 28.5466 24.7593 30.0219C23.284 31.4972 20.9235 32.0875 17.9728 29.1369C15.0222 26.1863 13.6453 18.9079 13.6453 18.9079C13.6453 18.9079 12.2683 11.6299 9.31767 8.67923C6.36705 5.72859 4.00657 6.31856 2.53124 7.79382C1.0559 9.26908 0.465801 11.63 3.41643 14.5805C6.36705 17.531 11.7594 18.1212 11.7594 18.1212" stroke="black" stroke-linecap="round"/>
<path d="M15.0245 18.1275C18.7521 18.1275 19.9019 17.9505 20.9886 16.7931C22.0754 15.6358 22.3638 13.5532 20.5201 11.9174C18.6764 10.2815 16.0392 10.3219 15.0245 12.3512C14.0878 14.2247 15.0245 16.0981 15.0245 16.0981" stroke="black" stroke-linecap="round"/>
<path d="M1 31.5537C1.55791 23.1906 9.82466 26.8703 8.36961 29.3316C6.68066 32.1886 0.25134 27.0679 3.07595 23.7227C5.13155 21.2882 14.1388 22.2822 12.2402 25.9333C10.2107 29.8362 -2.43451 17.3473 12.2402 19.8426" stroke="black" stroke-linecap="round"/>
</svg>
